<svg xmlns="http://www.w3.org/2000/svg" xmlns:xlink="http://www.w3.org/1999/xlink" width="150.191" height="55" viewBox="0 0 150.191 55">
  <defs>
    <radialGradient id="radial-gradient" cx="0.5" cy="0.5" r="0.5" gradientUnits="objectBoundingBox">
      <stop offset="0" stop-color="#fff"></stop>
      <stop offset="1" stop-color="gray" stop-opacity="0"></stop>
    </radialGradient>
  </defs>
  <g id="logo_white_glow" transform="translate(-317.736 -0.5)">
    <ellipse id="Ellipse_2" data-name="Ellipse 2" cx="32.5" cy="27" rx="32.5" ry="27" transform="translate(362 0.5)" opacity="0.35" fill="url(#radial-gradient)"></ellipse>
    <g id="Group_26" data-name="Group 26" transform="translate(2215 3037.5)">
      <path id="Path_1" data-name="Path 1" d="M526.763,1982.623a7.376,7.376,0,0,1-5.868,2.922c-4.806,0-8.43-3.63-8.43-9.96,0-6.23,3.582-10.015,8.43-10.015a7.331,7.331,0,0,1,5.868,2.911v-2.435h5.047v19.035h-5.047Zm0-10.4a5.428,5.428,0,0,0-4.333-2.158c-2.833,0-4.806,2.2-4.806,5.522,0,3.264,1.973,5.511,4.806,5.511a5.437,5.437,0,0,0,4.333-2.169Z" transform="translate(-2409.729 -4979.983)" fill="#fff"></path>
      <path id="Path_2" data-name="Path 2" d="M808.071,1986.341a7.57,7.57,0,0,0,5.942,2.347c2.4,0,5.246-1.063,5.246-4.8v-1.926a7.44,7.44,0,0,1-5.877,2.988c-4.764,0-8.388-3.343-8.388-9.684,0-6.229,3.586-9.693,8.388-9.693a7.344,7.344,0,0,1,5.877,2.911v-2.435H824.3v17.729c0,7.235-5.595,9.019-10.287,9.019a11.467,11.467,0,0,1-8.189-2.843ZM819.26,1972.2a5.448,5.448,0,0,0-4.3-2.18c-2.834,0-4.8,1.981-4.8,5.244s1.97,5.237,4.8,5.237a5.537,5.537,0,0,0,4.3-2.17Z" transform="translate(-2680.012 -4979.983)" fill="#fff"></path>
      <path id="Path_3" data-name="Path 3" d="M1106.845,1965.569c5.677,0,9.535,4.26,9.535,10.48v1.105h-14.143c.321,2.4,2.25,4.406,5.476,4.406a7.769,7.769,0,0,0,5.08-1.891l2.215,3.23a11.863,11.863,0,0,1-7.848,2.645c-5.786,0-10.159-3.907-10.159-10A9.685,9.685,0,0,1,1106.845,1965.569Zm-4.681,8.188h9.367a4.394,4.394,0,0,0-4.687-4.2A4.567,4.567,0,0,0,1102.165,1973.757Z" transform="translate(-2949.814 -4979.983)" fill="#fff"></path>
      <path id="Path_4" data-name="Path 4" d="M1718.794,1973.569c0-2.632-1.383-3.55-3.508-3.55a5.439,5.439,0,0,0-4.337,2.246v12.815h-5v-19.035h5v2.48a8.706,8.706,0,0,1,6.661-2.955c4.184,0,6.187,2.368,6.187,6.065v13.445h-5Z" transform="translate(-3512.454 -4979.983)" fill="#fff"></path>
      <path id="Path_5" data-name="Path 5" d="M1954.691,1971.786h5.358l4.969,13.234,4.957-13.234h5.4l-7.647,19.035h-5.4Z" transform="translate(-3742.282 -4985.728)" fill="#fff"></path>
      <path id="Path_6" data-name="Path 6" d="M2251.994,1992.083a7.476,7.476,0,0,0,5.733,2.346c3.21,0,5.113-1.726,5.113-4.869v-1.97a8.943,8.943,0,0,1-6.7,2.867c-4.184,0-6.143-2.282-6.143-5.988v-12.682h5V1982.5c0,2.679,1.373,3.51,3.5,3.51a5.63,5.63,0,0,0,4.338-2.159v-12.062h4.991v17.529c0,5.953-4.051,9.219-10.1,9.219a11.434,11.434,0,0,1-7.969-2.844Z" transform="translate(-4014.905 -4985.728)" fill="#fff"></path>
      <rect id="Rectangle_10" data-name="Rectangle 10" width="18.594" height="4.845" transform="translate(-1829.689 -2999.759)" fill="#fff"></rect>
      <rect id="Rectangle_11" data-name="Rectangle 11" width="18.594" height="4.845" transform="translate(-1829.689 -3010.748)" fill="#fff"></rect>
      <rect id="Rectangle_12" data-name="Rectangle 12" width="18.594" height="4.845" transform="translate(-1829.689 -3021.19)" fill="#fff"></rect>
    </g>
  </g>
</svg>