<svg xmlns="http://www.w3.org/2000/svg" xmlns:xlink="http://www.w3.org/1999/xlink" version="1.1" id="Layer_1" x="0px" y="0px" viewBox="0 0 612.5 100" style="enable-background:new 0 0 612.5 100;" xml:space="preserve">
<style type="text/css">
	.st0{fill:#FDFEFE;}
</style>
<g>
	<g>
		<path class="st0" d="M128.9,26.8c0-3.1,2.5-5.6,5.6-5.6c3.1,0,5.6,2.5,5.6,5.6c0,3-2.5,5.6-5.6,5.6    C131.5,32.4,128.9,29.8,128.9,26.8z M130.2,38.6h8.8v40.9h-8.8V38.6z"/>
		<path class="st0" d="M183.1,68h-24.4l-4,11.5h-10.2l20.8-57.3h11.3l20.7,57.3h-10.1L183.1,68z M180,59.1l-9.1-25.9l-9.1,25.9H180z    "/>
		<path class="st0" d="M246.3,59c0,12.2-9.2,21.5-20.4,21.5c-6.4,0-11.2-2.6-14.3-6.9v22.2h-8.8V38.6h8.8v5.9c3.1-4.3,7.9-7,14.3-7    C237.1,37.5,246.3,46.9,246.3,59z M237.5,59c0-7.6-5.6-13.1-12.9-13.1c-7.4,0-12.9,5.5-12.9,13.1c0,7.6,5.6,13.1,12.9,13.1    C231.9,72.1,237.5,66.6,237.5,59z"/>
		<path class="st0" d="M295.6,38.6v40.9h-8.8v-5.9c-3.1,4.3-7.9,7-14.3,7c-11.1,0-20.4-9.4-20.4-21.5c0-12.2,9.2-21.5,20.4-21.5    c6.4,0,11.2,2.6,14.3,6.9v-5.8H295.6z M286.7,59c0-7.6-5.6-13.1-12.9-13.1c-7.4,0-12.9,5.5-12.9,13.1c0,7.6,5.6,13.1,12.9,13.1    C281.2,72.1,286.7,66.6,286.7,59z"/>
		<path class="st0" d="M327.3,37.8v9.6c-5.8-0.4-12.6,2.3-12.6,11.5v20.6h-8.8V38.6h8.8v6.9C317.2,39.9,322.2,37.8,327.3,37.8z"/>
		<path class="st0" d="M347.6,47.1v19.6c0,5.2,3.4,5.2,10.1,4.8v7.9c-13.6,1.6-19-2.1-19-12.8V47.1h-7.5v-8.5h7.5v-8.8l8.8-2.6v11.5    h10.1v8.5H347.6z"/>
		<path class="st0" d="M426.3,54.1v25.4h-8.8V54.7c0-5.7-3.1-8.9-7.9-8.9c-5.2,0-8.9,3.4-8.9,10.8v22.9h-8.8V54.7    c0-5.7-2.9-8.9-7.7-8.9c-5,0-9.1,3.4-9.1,10.8v22.9h-8.8V38.6h8.8v4.9c2.6-4,6.6-6,11.7-6c5.3,0,9.2,2.4,11.6,6.5    c2.7-4.3,7-6.5,12.5-6.5C420.1,37.5,426.3,43.9,426.3,54.1z"/>
		<path class="st0" d="M455.9,72.5c4.9,0,8.6-2.2,10.6-5.1l7.3,4.3c-3.8,5.6-9.9,8.9-17.9,8.9c-13.5,0-22.3-9.2-22.3-21.5    c0-12.1,8.8-21.5,21.6-21.5c12.2,0,20.5,9.8,20.5,21.6c0,1.2-0.2,2.5-0.3,3.7h-32.6C444.2,69.2,449.3,72.5,455.9,72.5z     M466.7,55.6c-1.2-7-6.4-10.1-11.7-10.1c-6.6,0-11.1,3.9-12.4,10.1H466.7z"/>
		<path class="st0" d="M520.7,54.4v25.1h-8.8V55.3c0-6.2-3.6-9.5-9.2-9.5c-5.8,0-10.4,3.4-10.4,11.8v21.9h-8.8V38.6h8.8v5.2    c2.7-4.3,7.1-6.3,12.7-6.3C514.1,37.5,520.7,43.7,520.7,54.4z"/>
		<path class="st0" d="M542.8,47.1v19.6c0,5.2,3.4,5.2,10.1,4.8v7.9c-13.6,1.6-19-2.1-19-12.8V47.1h-7.5v-8.5h7.5v-8.8l8.8-2.6v11.5    H553v8.5H542.8z"/>
		<path class="st0" d="M589.5,68c0,8.2-7.1,12.6-16,12.6c-8.2,0-14.1-3.7-16.7-9.6l7.6-4.4c1.3,3.7,4.6,5.9,9.1,5.9    c3.9,0,7-1.3,7-4.6c0-7.3-22-3.2-22-17.8c0-7.7,6.6-12.5,15-12.5c6.7,0,12.3,3.1,15.1,8.5l-7.4,4.2c-1.5-3.2-4.3-4.7-7.7-4.7    c-3.2,0-6,1.4-6,4.3C567.5,57.3,589.5,52.8,589.5,68z"/>
	</g>
</g>
<path class="st0" d="M51.1,2.5C13.7,2.5,3.3,12.9,3.3,50.5c0,27,5.3,39.9,22.2,45.1c1.3,0.4,2.6-0.6,2.6-1.9V50.1  c0-0.7,0.4-1.4,1-1.7l9-5.1c1.3-0.7,2.9,0.2,2.9,1.7v51.2c0,1.1,0.8,1.9,1.9,2c2.1,0.1,4.7,0.1,6.4,0.2c1.1,0,2-0.9,2-2V27.1  c0-1.5,1.7-2.5,3-1.7l19,11.7c0.6,0.4,0.9,1,0.9,1.7v54.8c0,1.3,1.3,2.3,2.6,1.9C93.7,90.3,99,77.4,99,50.5  C99,12.9,88.6,2.5,51.1,2.5z"/>
<g id="Registered_Mark_-_Small_Logo">
	<path class="st0" d="M609.7,71.4c0,4.4-3.6,8-8,8s-8-3.6-8-8c0-4.4,3.6-8,8-8S609.7,67,609.7,71.4z M607.9,71.4   c0-3.5-2.8-6.3-6.2-6.3c-3.5,0-6.3,2.8-6.3,6.3s2.8,6.3,6.3,6.3C605.1,77.7,607.9,74.9,607.9,71.4z M603.9,72.5l1.7,3H603l-1.2-2.4   H601v2.4h-2.4v-8.2h3.3c1.7,0,3.2,1.1,3.2,2.7C605.1,71.1,604.6,71.9,603.9,72.5z M601,71h0.7c0.6,0,1-0.3,1-0.8   c0-0.6-0.4-0.8-1-0.8H601V71z"/>
</g>
</svg>