<svg xmlns="http://www.w3.org/2000/svg" width="313" height="132.564" viewBox="0 0 313 132.564"><g transform="translate(580 -204.4)"><path d="M-571.641,334.746a7.747,7.747,0,0,1-6.181-2.529A9.539,9.539,0,0,1-580,325.685c0-2.81.843-6.743,2.458-11.73a55.344,55.344,0,0,1,6.111-13.135c2.459-3.793,4.777-5.619,7.095-5.619a2.517,2.517,0,0,1,1.686.632,2.135,2.135,0,0,1,.7,1.756c0,.983-1.124,3.442-3.442,7.305a103,103,0,0,0-5.69,10.677,21.949,21.949,0,0,0-2.107,8.921c0,2.529.422,4.285,1.264,5.128.843.913,2.178,1.335,4.074,1.335,5.619,0,11.239-5.549,16.718-16.577l.983,1.054c-2.037,6.111-4.987,10.817-8.921,14.189-4.074,3.442-8.218,5.128-12.573,5.128Z" transform="translate(0 -26.815)" fill="#fff"/><path d="M-508.7,336.187a7.66,7.66,0,0,1-5.619-1.9,6.615,6.615,0,0,1-1.967-5.057,12.519,12.519,0,0,1,.492-3.3c.351-1.264.7-2.529,1.054-3.723a35.693,35.693,0,0,0,1.124-4.144,16.7,16.7,0,0,0,.492-3.934c0-3.512-1.475-5.338-4.355-5.338-2.739,0-5.619,1.475-8.64,4.355a53.47,53.47,0,0,0-8.008,9.693c-2.318,3.512-4.987,7.8-8.008,12.784a10.279,10.279,0,0,1-3.372-.562,5.594,5.594,0,0,1-2.388-1.756,22.547,22.547,0,0,1,1.4-3.934q2.739-6.954,4.425-12.644a39.646,39.646,0,0,0,1.826-10.115,6.662,6.662,0,0,1,2.177-1.545,5.945,5.945,0,0,1,2.81-.7c1.967,0,2.95.913,2.95,2.81a31.4,31.4,0,0,1-.983,5.69,82.919,82.919,0,0,1-2.529,8.64,70.8,70.8,0,0,1,11.1-13.557c3.934-3.723,7.727-5.549,11.52-5.549a6.948,6.948,0,0,1,6.041,2.88,11.725,11.725,0,0,1,2.037,6.884,19.352,19.352,0,0,1-.562,4.566,48.525,48.525,0,0,1-1.756,4.987c-.632,1.616-1.124,2.95-1.545,4.144a11.762,11.762,0,0,0-.562,3.442c0,2.739,1.054,4.144,3.231,4.144,2.458,0,4.987-1.616,7.656-4.917a63.937,63.937,0,0,0,7.516-12.082l1.194,1.4q-7.8,18.333-18.755,18.333Z" transform="translate(-9.552 -28.955)" fill="#fff"/><path d="M-461.007,325.021q-9.694,0-9.694-10.747a50.955,50.955,0,0,1,1.686-11.59,123.558,123.558,0,0,1,4.636-14.61,29.859,29.859,0,0,1-3.934-.843v-1.967c2.6.281,4.215.422,4.776.422a135.755,135.755,0,0,1,10.255-21.424q5.479-9.061,8.64-9.061a2.179,2.179,0,0,1,1.545.632,2.136,2.136,0,0,1,.7,1.756,10.423,10.423,0,0,1-1.335,4.144c-.913,1.826-2.458,4.566-4.636,8.359-.351.7-1.475,2.74-3.372,6.041s-3.582,6.6-5.128,9.9h4c5.971,0,11.168-.211,15.524-.632v1.967a191.282,191.282,0,0,1-19.106,1.335h-1.616c-4,9.131-5.971,17-5.971,23.672,0,3.091.492,5.338,1.4,6.673a5.31,5.31,0,0,0,4.636,2.037c3.723,0,7.375-1.616,10.958-4.917a45.872,45.872,0,0,0,9.693-13.627l1.4,1.054a42.461,42.461,0,0,1-10.817,15.453c-4.5,3.934-9.272,5.971-14.259,5.971Z" transform="translate(-32.331 -14.947)" fill="#fff"/><path d="M-414.924,335.731c-4.285,0-7.516-1.194-9.834-3.512a12.514,12.514,0,0,1-3.442-9.061c0-4.285,1.4-8.851,4.215-13.767a42.5,42.5,0,0,1,10.677-12.433q6.427-5.057,12.644-5.058c4.5,0,6.743,2.178,6.743,6.6a14.786,14.786,0,0,1-4,9.9,29.322,29.322,0,0,1-10.326,7.516,40.407,40.407,0,0,1-12.573,3.582,17.774,17.774,0,0,0-.421,3.934,10.465,10.465,0,0,0,1.967,6.532c1.335,1.756,3.512,2.6,6.6,2.6,4.425,0,8.851-1.826,13.346-5.549a42.943,42.943,0,0,0,10.958-13.7l1.335.983a39.223,39.223,0,0,1-12.011,15.524c-5.128,3.934-10.466,5.9-15.875,5.9Zm-5.268-18.263a53.2,53.2,0,0,0,9.553-4.566,36.1,36.1,0,0,0,8.5-6.884,12.563,12.563,0,0,0,3.512-8.289,2.914,2.914,0,0,0-.492-1.9,2.123,2.123,0,0,0-1.756-.562c-2.248,0-4.706,1.124-7.305,3.372a38.722,38.722,0,0,0-7.305,8.57,36.013,36.013,0,0,0-4.706,10.255Z" transform="translate(-44.896 -25.831)" fill="#fff"/><path d="M-355.715,331.473a8.145,8.145,0,0,1-5.83-1.967,6.726,6.726,0,0,1-2.107-5.128c0-2.458,1.054-5.971,3.161-10.607q1.37-3.582,2.107-5.69a11.956,11.956,0,0,0,.7-3.934,6.626,6.626,0,0,0-1.264-4.285,13.58,13.58,0,0,0-2.739-2.6c-.983-.7-1.686-1.124-2.037-1.335-1.616,4.074-3.3,8.008-5.128,11.871a98.962,98.962,0,0,1-4.566,8.921l-.983-1.826a155.682,155.682,0,0,0,8.78-20.651,3.607,3.607,0,0,1-1.054-2.6,8.5,8.5,0,0,1,.843-3.723,9.151,9.151,0,0,1,1.967-2.739,3.446,3.446,0,0,1,1.756-.983c.983,0,1.545.843,1.545,2.6a10.093,10.093,0,0,1-.562,1.967,17.658,17.658,0,0,0-.632,2.037,2.846,2.846,0,0,0,.913,2.037,21.594,21.594,0,0,0,2.95,2.318,27.523,27.523,0,0,1,5.268,4.706,9.279,9.279,0,0,1,1.9,6.041,15.36,15.36,0,0,1-.773,4.706c-.492,1.545-1.264,3.582-2.248,6.111-1.616,3.442-2.388,5.971-2.388,7.516,0,2.178,1.054,3.231,3.231,3.231a12.443,12.443,0,0,0,7.024-2.6A33.063,33.063,0,0,0-339,318.408a32.989,32.989,0,0,0,4.566-7.094l1.4,1.054a38.729,38.729,0,0,1-9.764,13.206c-4.285,3.793-8.57,5.9-12.925,5.9Z" transform="translate(-60.807 -23.551)" fill="#fff"/><path d="M-345.381,363.895a5.206,5.206,0,0,1-4.144-1.545,5.41,5.41,0,0,1-1.475-4c0-2.669,1.264-5.619,3.863-8.78a34.262,34.262,0,0,1,9.834-8.148,44.939,44.939,0,0,1,4.214-2.177,16.614,16.614,0,0,0,2.739-1.335,134.421,134.421,0,0,0,7.305-26.692q-.632,1.159-3.582,6.111a20.515,20.515,0,0,0-1.545,2.529l-.983-1.615a88.991,88.991,0,0,0,4.636-10.747,75.913,75.913,0,0,1,3.934-8.851q1.475-2.739,3.372-2.739a2.266,2.266,0,0,1,1.9.913,3.64,3.64,0,0,1,.7,2.318c0,1.967-.843,6.533-2.529,13.768s-3.723,14.4-6.111,21.494l1.967-1.194a55.294,55.294,0,0,0,9.483-6.533c2.529-2.177,4.987-5.619,7.446-10.115l1.4.773a31.033,31.033,0,0,1-7.516,11.1,57.979,57.979,0,0,1-10.817,7.305l-3.02,1.756a79.448,79.448,0,0,1-9.553,18.966c-3.653,4.987-7.446,7.446-11.52,7.446Zm-.983-3.653c1.616,0,3.793-1.686,6.533-4.987a60.373,60.373,0,0,0,8.008-13.768,44.452,44.452,0,0,0-12.152,8.218c-2.81,2.88-4.215,5.549-4.215,7.937,0,1.756.632,2.6,1.826,2.6Z" transform="translate(-67.717 -26.931)" fill="#fff"/><path d="M-283.122,336.756a7.724,7.724,0,0,1-5.83-2.318,9.343,9.343,0,0,1-2.248-6.673q0-6.427,4.636-14.329a47.869,47.869,0,0,1,11.66-13.487c4.706-3.723,9.272-5.549,13.767-5.549a10.932,10.932,0,0,1,7.024,2.248,7.119,7.119,0,0,1,2.81,5.83,4.262,4.262,0,0,1-1.4,3.582,6.393,6.393,0,0,1-3.934,1.054,15.036,15.036,0,0,0,.562-3.793,6.786,6.786,0,0,0-1.335-4.425,4.678,4.678,0,0,0-4-1.686c-3.161,0-6.533,1.756-10.045,5.338a45,45,0,0,0-8.78,12.714c-2.318,4.917-3.512,9.131-3.512,12.714q0,4.215,2.95,4.215c2.88,0,6.322-2.318,10.185-6.884a189.311,189.311,0,0,0,12.573-16.788,9.746,9.746,0,0,1,2.88.913c.983.492,1.475,1.054,1.475,1.756a6.819,6.819,0,0,1-1.054,2.739c-.7,1.264-1.124,2.037-1.264,2.248a55.835,55.835,0,0,0-2.95,5.619,11.526,11.526,0,0,0-1.054,4.5,5.842,5.842,0,0,0,.913,3.3,3.062,3.062,0,0,0,2.739,1.475c2.107,0,4.706-1.475,7.937-4.5a55.7,55.7,0,0,0,9.412-12.644l1.054,1.054a40.556,40.556,0,0,1-5.83,10.255,29.869,29.869,0,0,1-7.727,7.024,15.228,15.228,0,0,1-7.937,2.529,7.513,7.513,0,0,1-5.83-2.248,7.79,7.79,0,0,1-2.037-5.338,18.838,18.838,0,0,1,.351-3.161,52.774,52.774,0,0,1-8.71,9.553,10.684,10.684,0,0,1-7.446,3.161Z" transform="translate(-85.39 -26.573)" fill="#fff"/><path d="M-214.882,317.654a7.983,7.983,0,0,1-5.69-2.388c-1.686-1.545-2.529-3.863-2.529-6.884,0-4,1.545-8.71,4.636-14.049a49.75,49.75,0,0,1,11.52-13.767c4.636-3.793,9.061-5.69,13.346-5.69q4.847,0,4.847,3.372a10.494,10.494,0,0,1-.211,1.545c-.7-1.124-2.107-1.616-4.144-1.616-3.653,0-7.165,1.756-10.607,5.2a40.592,40.592,0,0,0-8.359,12.222c-2.178,4.706-3.231,8.5-3.231,11.52a6.453,6.453,0,0,0,1.054,3.863,3.319,3.319,0,0,0,2.88,1.4c1.967,0,4.355-1.264,7.235-3.793a48.95,48.95,0,0,0,8.64-10.677,88.035,88.035,0,0,0,7.8-15.664q8.534-22.126,14.329-34.489c3.863-8.218,7.094-12.363,9.693-12.363a1.992,1.992,0,0,1,1.545.7,2.626,2.626,0,0,1,.632,1.826c0,1.124-.562,2.95-1.756,5.619s-3.091,6.743-5.69,12.292c-5.409,11.239-9.693,21-12.925,29.221s-4.847,15.383-4.847,21.564a23.17,23.17,0,0,0,.351,4.847,1.947,1.947,0,0,0,2.107,1.264,10.407,10.407,0,0,0,5.409-2.037,26.961,26.961,0,0,0,6.181-5.69,37.812,37.812,0,0,0,5.268-8.5l1.335.983a37.869,37.869,0,0,1-5.69,9.974,31.541,31.541,0,0,1-7.727,7.094,15.136,15.136,0,0,1-7.867,2.6,6.345,6.345,0,0,1-5.479-2.388,9.42,9.42,0,0,1-1.756-5.83c0-2.458.7-6.392,2.107-11.73a69.716,69.716,0,0,1-11.59,14.821c-4,3.723-7.586,5.619-10.817,5.619Z" transform="translate(-105.503 -9.095)" fill="#fff"/><path d="M-579.26,372.4v-4.636c0-2.107-.07-3.793-.14-5.2a3.711,3.711,0,0,1,.913-.07c.7,0,1.124.281,1.124.843a6.522,6.522,0,0,1-.07.913c0,.492-.07,1.124-.07,1.9s-.07,1.475-.07,2.177v2.037c0,3.091.07,4.987.141,5.619.632,0,1.124.07,1.475.07a12.224,12.224,0,0,0,4.5-.492,4.142,4.142,0,0,1,.141.983c0,.281-.07.492-.211.562a8.726,8.726,0,0,1-3.372.351c-1.756,0-2.88,0-3.372-.07a1.188,1.188,0,0,1-.843-.281,1.7,1.7,0,0,1-.211-.983v-1.616c0-.843.07-1.545.07-2.107Z" transform="translate(-0.178 -46.749)" fill="#e09229"/><path d="M-563.833,368.664a33.631,33.631,0,0,1,.07,3.442h1.4a16.006,16.006,0,0,0,2.107-.07,1.04,1.04,0,0,1,.07.492.859.859,0,0,1-.211.632c-.141.14-.351.14-.562.211h-2.88a40.12,40.12,0,0,0,.141,4.285c.562,0,.983.07,1.264.07a11.22,11.22,0,0,0,3.863-.421,3.531,3.531,0,0,1,.141.843.547.547,0,0,1-.211.492,10.626,10.626,0,0,1-3.02.211h-2.88a1.13,1.13,0,0,1-.773-.211,1.049,1.049,0,0,1-.211-.7v-6.392a20.421,20.421,0,0,0-.281-4c1.475-.07,2.81-.14,4.074-.14,1.826,0,2.81.07,3.021.281a.547.547,0,0,1,.211.492,3.523,3.523,0,0,1-.14.843,12.535,12.535,0,0,0-3.372-.351,7.837,7.837,0,0,0-1.826,0Z" transform="translate(-4.226 -48.208)" fill="#e09229"/><path d="M-547.286,374.173c-.281-.7-.913-2.248-1.826-4.776-.773,2.107-1.335,3.723-1.756,4.706.913,0,1.545.07,2.037.07a5.531,5.531,0,0,0,1.545,0Zm-1.9,1.264c-.281,0-1.054,0-2.177-.07-.07.211-.211.562-.492,1.194-.211.632-.421,1.124-.562,1.545a7.687,7.687,0,0,0-.351,1.194c-.843-.14-1.335-.351-1.335-.7a1.862,1.862,0,0,1,.211-.7c.141-.351.351-.913.7-1.686s.7-1.616.984-2.388c1.124-2.95,1.9-5.057,2.248-6.252a2.9,2.9,0,0,1,.843-.07,1.512,1.512,0,0,1,.7.14c.141.07.281.351.422.773.14.281.421,1.194.983,2.6s.913,2.529,1.264,3.231a40.8,40.8,0,0,0,2.107,4.566,2.35,2.35,0,0,1-.983.281.966.966,0,0,1-.913-.421c-.07-.211-.562-1.264-1.335-3.231a22.929,22.929,0,0,0-2.318,0Z" transform="translate(-7.707 -48.237)" fill="#e09229"/><path d="M-530.216,377.215a1.464,1.464,0,0,0,1.054.492,1.853,1.853,0,0,0,.492-.07,2.169,2.169,0,0,1,.141.562c0,.492-.492.7-1.475.7a1.927,1.927,0,0,1-1.264-.492,4.7,4.7,0,0,1-1.124-1.4c-.351-.632-.632-1.124-.843-1.545s-.421-.913-.7-1.545q-.421-.105-.421-.421a5.87,5.87,0,0,1,.141-.7,5.188,5.188,0,0,0,.843.141,2.278,2.278,0,0,0,1.686-.632,2.337,2.337,0,0,0,.632-1.756,2.107,2.107,0,0,0-.7-1.826,3.7,3.7,0,0,0-2.177-.492c-.07,0-.562,0-1.335.07.07.7.07,1.826.07,3.512v3.442a12.546,12.546,0,0,0,.351,3.372,3.659,3.659,0,0,1-.983.141,1.22,1.22,0,0,1-.843-.211,1.129,1.129,0,0,1-.211-.773v-6.462a31.254,31.254,0,0,0-.211-4,16.37,16.37,0,0,1,2.81-.211c3.3,0,4.987,1.194,4.987,3.512a3.352,3.352,0,0,1-.773,2.248,3.636,3.636,0,0,1-2.107,1.124,16.134,16.134,0,0,0,1.967,3.231Z" transform="translate(-12.766 -48.118)" fill="#e09229"/><path d="M-512.609,378.879c-.281,0-.562.07-.7.07a1.233,1.233,0,0,1-1.054-.421c-.421-.7-1.264-2.037-2.529-4.074s-2.248-3.653-3.02-4.777c0,1.124.07,2.88.07,5.268a14.906,14.906,0,0,0,.351,3.934,3.627,3.627,0,0,1-.773.141c-.421,0-.7-.07-.773-.211a1.13,1.13,0,0,1-.211-.773v-6.462a15.694,15.694,0,0,0-.351-3.934,3.663,3.663,0,0,1,.983-.14,1.31,1.31,0,0,1,1.124.492,24.572,24.572,0,0,1,2.529,3.512c1.124,1.756,2.107,3.372,2.95,4.987-.07-1.054-.141-2.669-.141-4.776,0-1.616-.07-2.95-.14-4.144.211,0,.421-.07.632-.07.7,0,1.054.211,1.054.7v.7c0,.421-.07.913-.07,1.475v4.636a31.919,31.919,0,0,0,.07,3.863Z" transform="translate(-17.378 -48.237)" fill="#e09229"/><path d="M-503.574,383.061a1.243,1.243,0,0,0-1.124-1.335,1.355,1.355,0,0,1-.211-.7,1.129,1.129,0,0,1,.351-.773,1.48,1.48,0,0,1,.913-.351,1.227,1.227,0,0,1,.983.492,2.475,2.475,0,0,1,.421,1.616,4.889,4.889,0,0,1-.773,2.6,2.213,2.213,0,0,1-1.826,1.194c-.351,0-.562-.211-.562-.7v-.281h.141a1.608,1.608,0,0,0,1.194-.562,1.447,1.447,0,0,0,.492-1.194Z" transform="translate(-22.199 -51.927)" fill="#e09229"/><path d="M-489.859,372.293v-4.425c0-2.107-.07-3.793-.14-5.2a3.711,3.711,0,0,1,.913-.07c.7,0,1.124.281,1.124.843a6.518,6.518,0,0,1-.07.913c0,.492-.07,1.124-.07,1.9s-.07,1.475-.07,2.178v4.5a16.914,16.914,0,0,0,.421,4.425,2.346,2.346,0,0,1-1.054.211c-.422,0-.7-.07-.843-.281a1.7,1.7,0,0,1-.211-.983v-4Z" transform="translate(-26.639 -46.779)" fill="#e09229"/><path d="M-470.859,371.333v4.074a13.153,13.153,0,0,0,.351,3.442,2.749,2.749,0,0,1-.913.141,1.22,1.22,0,0,1-.843-.211,1.13,1.13,0,0,1-.211-.773v-8.289a67.752,67.752,0,0,0-3.372,9.2,2.166,2.166,0,0,1-.7.07,1.034,1.034,0,0,1-.913-.421c-.351-.7-.843-2.037-1.616-4.074a45.993,45.993,0,0,0-1.967-4.706v5.69a13.154,13.154,0,0,0,.351,3.442,3.624,3.624,0,0,1-.773.14,1.129,1.129,0,0,1-.773-.211,1.129,1.129,0,0,1-.211-.773V370.7a11.68,11.68,0,0,0-.351-3.091,8.109,8.109,0,0,1,1.124-.14,1.545,1.545,0,0,1,1.4.843,24.6,24.6,0,0,1,1.4,2.739c.492,1.124.843,2.037,1.124,2.81s.632,1.9,1.054,3.231a32.7,32.7,0,0,1,3.512-8.851,1.545,1.545,0,0,1,1.4-.843,7.007,7.007,0,0,1,1.124.14,20.948,20.948,0,0,0-.211,3.793Z" transform="translate(-28.765 -48.208)" fill="#e09229"/><path d="M-456.818,373.422a2.51,2.51,0,0,0,1.826-.632,2.449,2.449,0,0,0,.632-1.756,2.454,2.454,0,0,0-.7-2.107,3.917,3.917,0,0,0-2.248-.562c-.07,0-.492,0-1.194.07.07.983.07,2.107.07,3.372v1.335a3.333,3.333,0,0,0,1.616.281Zm-3.372,1.335v-3.442a31.244,31.244,0,0,0-.211-4,16.369,16.369,0,0,1,2.81-.211c3.3,0,4.987,1.264,4.987,3.793a3.368,3.368,0,0,1-1.124,2.81,4.036,4.036,0,0,1-2.669.983,4.171,4.171,0,0,1-2.178-.562v1.194a12.538,12.538,0,0,0,.351,3.372,3.662,3.662,0,0,1-.983.141,1.221,1.221,0,0,1-.843-.211,1.13,1.13,0,0,1-.211-.773v-1.335c.07-.773.07-1.335.07-1.756Z" transform="translate(-35.396 -48.118)" fill="#e09229"/><path d="M-445.96,374.956v-3.582c0-1.545-.07-2.88-.14-4,.211,0,.562-.07.843-.07.7,0,1.054.211,1.054.7v.7c0,.421-.07.913-.07,1.475s-.07,1.124-.07,1.686v1.545a42.352,42.352,0,0,0,.141,4.285c.492,0,.913.07,1.194.07a9.343,9.343,0,0,0,3.582-.421,3.524,3.524,0,0,1,.141.843.818.818,0,0,1-.141.492,9.663,9.663,0,0,1-2.88.211h-2.81a.932.932,0,0,1-.7-.211,1.048,1.048,0,0,1-.211-.7v-1.264c.07-.773.07-1.335.07-1.756Z" transform="translate(-39.629 -48.178)" fill="#e09229"/><path d="M-432.333,368.664a33.558,33.558,0,0,1,.07,3.442h1.4a16.008,16.008,0,0,0,2.107-.07,1.041,1.041,0,0,1,.07.492.858.858,0,0,1-.211.632c-.14.14-.351.14-.562.211h-2.88a40.165,40.165,0,0,0,.141,4.285c.562,0,.983.07,1.264.07a11.22,11.22,0,0,0,3.863-.421,3.525,3.525,0,0,1,.14.843.547.547,0,0,1-.211.492,10.625,10.625,0,0,1-3.02.211h-2.88a1.13,1.13,0,0,1-.773-.211,1.048,1.048,0,0,1-.211-.7v-6.392a20.413,20.413,0,0,0-.281-4c1.475-.07,2.81-.14,4.074-.14,1.826,0,2.81.07,3.02.281a.547.547,0,0,1,.211.492,3.523,3.523,0,0,1-.141.843,12.535,12.535,0,0,0-3.372-.351,7.838,7.838,0,0,0-1.826,0Z" transform="translate(-43.121 -48.208)" fill="#e09229"/><path d="M-408.259,371.333v4.074a13.15,13.15,0,0,0,.351,3.442,2.75,2.75,0,0,1-.913.141,1.22,1.22,0,0,1-.843-.211,1.13,1.13,0,0,1-.211-.773v-8.289a67.763,67.763,0,0,0-3.372,9.2,2.166,2.166,0,0,1-.7.07,1.033,1.033,0,0,1-.913-.421c-.351-.7-.843-2.037-1.616-4.074a46.007,46.007,0,0,0-1.967-4.706v5.69a13.148,13.148,0,0,0,.351,3.442,3.625,3.625,0,0,1-.773.14,1.129,1.129,0,0,1-.773-.211,1.129,1.129,0,0,1-.211-.773V370.7a11.676,11.676,0,0,0-.351-3.091,8.112,8.112,0,0,1,1.124-.14,1.545,1.545,0,0,1,1.4.843,24.555,24.555,0,0,1,1.4,2.739c.492,1.124.843,2.037,1.124,2.81s.632,1.9,1.054,3.231a32.7,32.7,0,0,1,3.512-8.851,1.545,1.545,0,0,1,1.4-.843,7.008,7.008,0,0,1,1.124.14,20.949,20.949,0,0,0-.211,3.793Z" transform="translate(-47.29 -48.208)" fill="#e09229"/><path d="M-396.033,368.664a33.558,33.558,0,0,1,.07,3.442h1.4a16.008,16.008,0,0,0,2.107-.07,1.042,1.042,0,0,1,.07.492.859.859,0,0,1-.211.632c-.14.14-.351.14-.562.211h-2.88a40.152,40.152,0,0,0,.141,4.285c.562,0,.983.07,1.264.07a11.221,11.221,0,0,0,3.863-.421,3.525,3.525,0,0,1,.14.843.547.547,0,0,1-.211.492,10.626,10.626,0,0,1-3.02.211h-2.88a1.13,1.13,0,0,1-.773-.211,1.048,1.048,0,0,1-.211-.7v-6.392a20.416,20.416,0,0,0-.281-4c1.475-.07,2.81-.14,4.074-.14,1.826,0,2.81.07,3.02.281a.547.547,0,0,1,.211.492,3.525,3.525,0,0,1-.141.843,12.536,12.536,0,0,0-3.372-.351,7.838,7.838,0,0,0-1.826,0Z" transform="translate(-53.864 -48.208)" fill="#e09229"/><path d="M-374.809,378.879c-.281,0-.562.07-.7.07a1.232,1.232,0,0,1-1.054-.421c-.421-.7-1.264-2.037-2.529-4.074s-2.248-3.653-3.02-4.777c0,1.124.07,2.88.07,5.268a14.908,14.908,0,0,0,.351,3.934,3.627,3.627,0,0,1-.773.141c-.421,0-.7-.07-.773-.211a1.13,1.13,0,0,1-.211-.773v-6.462a15.7,15.7,0,0,0-.351-3.934,3.663,3.663,0,0,1,.983-.14,1.31,1.31,0,0,1,1.124.492,24.586,24.586,0,0,1,2.529,3.512c1.124,1.756,2.107,3.372,2.95,4.987-.07-1.054-.14-2.669-.14-4.776,0-1.616-.07-2.95-.141-4.144.211,0,.421-.07.632-.07.7,0,1.054.211,1.054.7v.7c0,.421-.07.913-.07,1.475v4.636a31.912,31.912,0,0,0,.07,3.863Z" transform="translate(-58.065 -48.237)" fill="#e09229"/><path d="M-364.318,374.846V371.4c0-.7,0-1.616-.07-2.739-1.756,0-2.88,0-3.442.07a3.783,3.783,0,0,1-.07-.562.691.691,0,0,1,.211-.562,1.4,1.4,0,0,1,.632-.14h4.215c1.967,0,3.161,0,3.582-.07,0,.14.07.351.07.562,0,.492-.281.7-.773.7h-2.6v.843c0,.421-.07.773-.07,1.194v4.706a13.541,13.541,0,0,0,.351,3.442,3.253,3.253,0,0,1-.983.141,1.22,1.22,0,0,1-.843-.211,1.13,1.13,0,0,1-.211-.773v-1.335a15.376,15.376,0,0,1,0-1.826Z" transform="translate(-62.771 -48.208)" fill="#e09229"/><path d="M-310.76,372.293v-4.425c0-2.107-.07-3.793-.141-5.2a3.712,3.712,0,0,1,.913-.07c.7,0,1.124.281,1.124.843a6.521,6.521,0,0,1-.07.913c0,.492-.07,1.124-.07,1.9s-.07,1.475-.07,2.178v4.5a16.914,16.914,0,0,0,.421,4.425,2.346,2.346,0,0,1-1.054.211c-.421,0-.7-.07-.843-.281a1.7,1.7,0,0,1-.211-.983v-4Z" transform="translate(-79.65 -46.779)" fill="#e09229"/><path d="M-291.759,371.333v4.074a13.155,13.155,0,0,0,.351,3.442,2.749,2.749,0,0,1-.913.141,1.22,1.22,0,0,1-.843-.211,1.13,1.13,0,0,1-.211-.773v-8.289a67.757,67.757,0,0,0-3.372,9.2,2.165,2.165,0,0,1-.7.07,1.034,1.034,0,0,1-.913-.421c-.351-.7-.843-2.037-1.616-4.074a45.994,45.994,0,0,0-1.967-4.706v5.69a13.152,13.152,0,0,0,.351,3.442,3.623,3.623,0,0,1-.773.14,1.129,1.129,0,0,1-.773-.211,1.13,1.13,0,0,1-.211-.773V370.7a11.677,11.677,0,0,0-.351-3.091,8.111,8.111,0,0,1,1.124-.14,1.545,1.545,0,0,1,1.4.843,24.551,24.551,0,0,1,1.4,2.739c.492,1.124.843,2.037,1.124,2.81s.632,1.9,1.054,3.231a32.705,32.705,0,0,1,3.512-8.851,1.545,1.545,0,0,1,1.4-.843,7.007,7.007,0,0,1,1.124.14,20.952,20.952,0,0,0-.211,3.793Z" transform="translate(-81.766 -48.208)" fill="#e09229"/><path d="M-277.718,373.422a2.51,2.51,0,0,0,1.826-.632,2.449,2.449,0,0,0,.632-1.756,2.454,2.454,0,0,0-.7-2.107,3.917,3.917,0,0,0-2.248-.562c-.07,0-.492,0-1.194.07.07.983.07,2.107.07,3.372v1.335a3.333,3.333,0,0,0,1.616.281Zm-3.372,1.335v-3.442a31.247,31.247,0,0,0-.211-4,16.37,16.37,0,0,1,2.81-.211c3.3,0,4.987,1.264,4.987,3.793a3.369,3.369,0,0,1-1.124,2.81,4.036,4.036,0,0,1-2.669.983,4.17,4.17,0,0,1-2.178-.562v1.194a12.537,12.537,0,0,0,.351,3.372,3.663,3.663,0,0,1-.983.141,1.221,1.221,0,0,1-.843-.211,1.13,1.13,0,0,1-.211-.773v-1.335c.07-.773.07-1.335.07-1.756Z" transform="translate(-88.402 -48.118)" fill="#e09229"/><path d="M-262.657,374.173c-.281-.7-.913-2.248-1.826-4.776-.773,2.107-1.335,3.723-1.756,4.706.913,0,1.545.07,2.037.07a5.375,5.375,0,0,0,1.545,0Zm-1.826,1.264c-.281,0-1.054,0-2.177-.07-.07.211-.211.562-.492,1.194-.211.632-.421,1.124-.562,1.545a7.67,7.67,0,0,0-.351,1.194c-.843-.14-1.335-.351-1.335-.7a1.862,1.862,0,0,1,.211-.7c.141-.351.351-.913.7-1.686s.7-1.616.983-2.388c1.124-2.95,1.9-5.057,2.248-6.252a2.9,2.9,0,0,1,.843-.07,1.512,1.512,0,0,1,.7.14c.14.07.281.351.422.773.14.281.421,1.194.983,2.6s.913,2.529,1.264,3.231a40.769,40.769,0,0,0,2.107,4.566,2.351,2.351,0,0,1-.983.281.966.966,0,0,1-.913-.421c-.07-.211-.562-1.264-1.335-3.231a22.141,22.141,0,0,0-2.318,0Z" transform="translate(-91.919 -48.237)" fill="#e09229"/><path d="M-244.96,376.331c.562.211.843.562.843.983s-.351.843-1.054,1.194a5.725,5.725,0,0,1-2.6.492,5.718,5.718,0,0,1-4.215-1.616A5.886,5.886,0,0,1-253.6,373.1a5.9,5.9,0,0,1,1.545-4.355,5.734,5.734,0,0,1,4.285-1.545,5.293,5.293,0,0,1,2.458.562,1.639,1.639,0,0,1,.983,1.335c0,.562-.421.913-1.194,1.054a2.355,2.355,0,0,0-1.054-1.264,3.008,3.008,0,0,0-1.545-.421,3.359,3.359,0,0,0-2.669,1.264,4.711,4.711,0,0,0-1.054,3.091,5.856,5.856,0,0,0,1.054,3.582,3.418,3.418,0,0,0,2.95,1.475,4.167,4.167,0,0,0,1.616-.351,6.964,6.964,0,0,0,1.264-1.194Z" transform="translate(-96.597 -48.148)" fill="#e09229"/><path d="M-234.918,374.846V371.4c0-.7,0-1.616-.07-2.739-1.756,0-2.88,0-3.442.07a3.783,3.783,0,0,1-.07-.562.691.691,0,0,1,.211-.562,1.4,1.4,0,0,1,.632-.14h4.215c1.967,0,3.161,0,3.582-.07,0,.14.07.351.07.562,0,.492-.281.7-.773.7h-2.6v.843c0,.421-.07.773-.07,1.194v4.706a13.545,13.545,0,0,0,.351,3.442,3.253,3.253,0,0,1-.983.141,1.22,1.22,0,0,1-.843-.211,1.13,1.13,0,0,1-.211-.773v-3.161Z" transform="translate(-101.067 -48.208)" fill="#e09229"/><path d="M-216.66,372.4v-4.636c0-2.107-.07-3.793-.14-5.2a3.71,3.71,0,0,1,.913-.07c.7,0,1.124.281,1.124.843a6.523,6.523,0,0,1-.07.913c0,.492-.07,1.124-.07,1.9s-.07,1.475-.07,2.177v2.037c0,3.091.07,4.987.141,5.619.632,0,1.124.07,1.475.07a12.224,12.224,0,0,0,4.5-.492,4.146,4.146,0,0,1,.14.983c0,.281-.07.492-.211.562a8.725,8.725,0,0,1-3.372.351c-1.756,0-2.88,0-3.372-.07a1.188,1.188,0,0,1-.843-.281,1.7,1.7,0,0,1-.211-.983v-1.616c.07-.843.07-1.545.07-2.107Z" transform="translate(-107.377 -46.749)" fill="#e09229"/><path d="M-202.46,374.816v-3.442c0-1.545-.07-2.88-.14-4a3.419,3.419,0,0,1,.843-.07c.7,0,1.054.211,1.054.7v.7c0,.421-.07.913-.07,1.475s-.07,1.124-.07,1.686v3.512a13.544,13.544,0,0,0,.351,3.442,3.257,3.257,0,0,1-.983.14,1.22,1.22,0,0,1-.843-.211,1.13,1.13,0,0,1-.211-.773v-1.335c.07-.843.07-1.4.07-1.826Z" transform="translate(-111.603 -48.178)" fill="#e09229"/><path d="M-188.19,367.24a2.618,2.618,0,0,1,.843-.141,1.13,1.13,0,0,1,.773.211,1.015,1.015,0,0,1,.211.773,13.918,13.918,0,0,1-1.264,4.987,18.907,18.907,0,0,1-2.669,4.847,3.765,3.765,0,0,1-.843.773,2.753,2.753,0,0,1-.913.14,1.042,1.042,0,0,1-.492-.07,39.922,39.922,0,0,0-1.967-6.392,13.384,13.384,0,0,0-2.388-4.5,2.277,2.277,0,0,1,1.475-.632.8.8,0,0,1,.562.211,2.441,2.441,0,0,1,.492.773c.422.913.983,2.248,1.616,4.074s1.124,3.372,1.475,4.706a18.42,18.42,0,0,0,2.248-4.285,13.451,13.451,0,0,0,.983-4.777,4.041,4.041,0,0,1-.14-.7Z" transform="translate(-113.299 -48.118)" fill="#e09229"/><path d="M-177.233,368.664a33.58,33.58,0,0,1,.07,3.442h1.4a16.007,16.007,0,0,0,2.107-.07,1.042,1.042,0,0,1,.07.492.858.858,0,0,1-.211.632c-.14.14-.351.14-.562.211h-2.88a40.145,40.145,0,0,0,.141,4.285c.562,0,.983.07,1.264.07a11.22,11.22,0,0,0,3.863-.421,3.525,3.525,0,0,1,.14.843.547.547,0,0,1-.211.492,10.626,10.626,0,0,1-3.02.211h-2.88a1.13,1.13,0,0,1-.773-.211,1.049,1.049,0,0,1-.211-.7v-6.392a20.414,20.414,0,0,0-.281-4c1.475-.07,2.81-.14,4.074-.14,1.826,0,2.81.07,3.02.281a.547.547,0,0,1,.211.492,3.527,3.527,0,0,1-.14.843,12.536,12.536,0,0,0-3.372-.351,7.838,7.838,0,0,0-1.826,0Z" transform="translate(-118.566 -48.208)" fill="#e09229"/><path d="M-159.567,369.769a2.359,2.359,0,0,0-1.124-1.054,3.263,3.263,0,0,0-1.616-.421,2.832,2.832,0,0,0-1.545.421,1.543,1.543,0,0,0-.632,1.335,1.31,1.31,0,0,0,.492,1.124,2.762,2.762,0,0,0,1.194.632c.492.141.983.281,1.545.421s1.054.351,1.545.492a2.659,2.659,0,0,1,1.194.983,3,3,0,0,1,.492,1.686,3,3,0,0,1-1.264,2.669,5.342,5.342,0,0,1-3.091.843,6.131,6.131,0,0,1-2.6-.492c-.773-.351-1.124-.7-1.124-1.194,0-.351.351-.7.983-1.054a2.528,2.528,0,0,0,1.264,1.124,4.326,4.326,0,0,0,1.826.421,2.8,2.8,0,0,0,1.686-.492,1.521,1.521,0,0,0,.7-1.335,1.6,1.6,0,0,0-.632-1.264,5.194,5.194,0,0,0-1.545-.7c-.632-.141-1.264-.351-1.826-.492a3.389,3.389,0,0,1-1.545-1.054,2.811,2.811,0,0,1-.632-1.9,2.9,2.9,0,0,1,1.124-2.529,4.816,4.816,0,0,1,2.88-.843,6.563,6.563,0,0,1,2.388.421c.7.281,1.054.7,1.054,1.194-.07.562-.421.913-1.194,1.054Z" transform="translate(-122.465 -48.118)" fill="#e09229"/><path d="M-149.682,382.488a1.236,1.236,0,0,1-.913.422,1.387,1.387,0,0,1-.983-.422A1.387,1.387,0,0,1-152,381.5a1.179,1.179,0,0,1,.421-.983,1.275,1.275,0,0,1,.983-.421,1.133,1.133,0,0,1,.913.421,1.387,1.387,0,0,1,.421.983,1.387,1.387,0,0,1-.421.983Z" transform="translate(-126.66 -51.987)" fill="#e09229"/><path d="M-304.673,259.9a8.282,8.282,0,0,0,7.867,5.971,8.1,8.1,0,0,0,5.9-2.458,16.351,16.351,0,0,1,.281,2.669,13.82,13.82,0,0,1-13.838,13.838A13.82,13.82,0,0,1-318.3,266.081a12.88,12.88,0,0,1,1.475-6.111h12.152Zm7.867,10.115c.211.07-1.686,6.041-7.937,5.69-6.322-.421-7.165-5.619-7.165-5.619l15.1-.07Z" transform="translate(-77.422 -16.412)" fill="#fff" fill-rule="evenodd"/><path d="M-303.169,252.863H-312.3A13.837,13.837,0,0,1-302.677,249a6.423,6.423,0,0,1,1.194.07,8.874,8.874,0,0,0-1.686,3.793Z" transform="translate(-79.223 -13.199)" fill="#fff" fill-rule="evenodd"/><path d="M-291.271,244.4a8.454,8.454,0,0,1,8.429,8.429,8.454,8.454,0,0,1-8.429,8.429,8.454,8.454,0,0,1-8.429-8.429,8.454,8.454,0,0,1,8.429-8.429Z" transform="translate(-82.943 -11.831)" fill="none" stroke="#fff" stroke-linecap="round" stroke-linejoin="round" stroke-miterlimit="10" stroke-width="2"/><path d="M-288.771,252.7a2.518,2.518,0,0,1,2.529,2.529,2.518,2.518,0,0,1-2.529,2.529,2.518,2.518,0,0,1-2.529-2.529,2.518,2.518,0,0,1,2.529-2.529Z" transform="translate(-85.447 -14.294)" fill="#fff" fill-rule="evenodd"/><path d="M-538.864,268.524a10.737,10.737,0,0,1-7.937-.7,11.911,11.911,0,0,1-5.128-6.322s-.983,2.177-2.248,2.81-3.723.211-3.723.211,3.863,3.442,4.215,7.446c.281,3.091-2.6,5.338-2.6,5.338a3.959,3.959,0,0,0,2.037,2.81,3.038,3.038,0,0,0,3.02.211s1.545-3.793,3.723-4.987c3.442-1.9,9.483.351,9.483.351s-2.6-1.054-2.6-3.512a4.494,4.494,0,0,1,1.756-3.653Z" transform="translate(-6.576 -16.886)" fill="#e09229" fill-rule="evenodd"/><path d="M-553.652,243.806a3.906,3.906,0,0,1-1.615,2.037,2.744,2.744,0,0,1-2.81-.211s-2.669-8.078.211-19.176,10.536-22.126,15.945-22.056,7.867,6.181,7.867,6.181a2.886,2.886,0,0,0-1.054.562c-.492.421-1.194,1.054-1.194,1.054s-3.442-4.355-5.479-3.934c-5.83,1.264-8.71,8.359-11.028,18.474a47.3,47.3,0,0,0-.843,17.069Z" transform="translate(-6.189 0)" fill="#fff" fill-rule="evenodd"/><path d="M-529.606,259.288a4.022,4.022,0,0,0-1.194,2.318,2.935,2.935,0,0,0,1.335,2.458s8.429-.983,17.35-8.289c8.851-7.305,15.594-18.9,13.206-23.812s-8.921-4.566-8.921-4.566a5.7,5.7,0,0,1,0,1.194c-.141.632-.421,1.475-.421,1.475s5.409,1.264,5.83,3.3c1.264,5.83-3.863,11.45-12.011,17.771a47.262,47.262,0,0,1-15.172,8.148Z" transform="translate(-14.641 -6.842)" fill="#fff" fill-rule="evenodd"/><path d="M-525.1,215.019c1.124-1.124,2.6-1.475,3.231-.773s.281,2.107-.843,3.231-2.6,1.475-3.231.773c-.7-.7-.281-2.178.843-3.231Z" transform="translate(-15.983 -2.822)" fill="#e09229" fill-rule="evenodd"/><path d="M-504.27,227.006c.422-1.545,1.475-2.529,2.388-2.318.913.281,1.264,1.686.843,3.231s-1.475,2.529-2.388,2.318c-.843-.281-1.264-1.756-.843-3.231Z" transform="translate(-22.486 -6.029)" fill="#e09229" fill-rule="evenodd"/></g></svg>